# xmcd CD database file
#
# Track frame offsets:
#	150
#	20281
#	41157
#	60783
#	79640
#	101363
#	119403
#	138402
#	158382
#	189579
#	212545
#	228365
#	246517
#	266303
#	287015
#	308505
#	336054
#
# Disc length: 4776 seconds
#
# Revision: 0
# Processed by: cddbd v1.4PL0 Copyright (c) Steve Scherf et al.
# Submitted via: CDex 1.50beta9
#
DISCID=d612a611
DTITLE=Chris REA - Hit Collection 2000
DYEAR=2000
DGENRE=Blues
TTITLE0=The Road To Hell
TTITLE1=Josephine
TTITLE2=Let's Dance
TTITLE3=Fool
TTITLE4=Auberge
TTITLE5=Julia
TTITLE6=Stainsby Girls
TTITLE7=If You Were Me
TTITLE8=On The Beach
TTITLE9=Looking For The Summer
TTITLE10=I Can Hear Your Heartbeat
TTITLE11=You Can Go Your Own Way
TTITLE12=God's Great Banana Skin
TTITLE13=Winter Song
TTITLE14=Gone Fishing
TTITLE15=Tell Me There's a Heaven
TTITLE16=''Disco'' La Passione
EXTD=YEAR: 2000
EXTT0=
EXTT1=
EXTT2=
EXTT3=
EXTT4=
EXTT5=
EXTT6=
EXTT7=
EXTT8=
EXTT9=
EXTT10=
EXTT11=
EXTT12=
EXTT13=
EXTT14=
EXTT15=
EXTT16=
PLAYORDER=
